# Blender 3.4.1
# www.blender.org
mtllib Candle_4.mtl
o Cylinder.006.LOW
v 0.083987 0.001521 0.046437
v 0.088963 0.001521 0.075422
v 0.071932 0.001451 0.099430
v 0.042902 0.001507 0.104468
v 0.018889 0.001521 0.087594
v 0.013871 0.001521 0.058551
v 0.030908 0.002494 0.034544
v 0.059902 0.001521 0.029449
v 0.071164 0.016643 0.053572
v 0.078321 0.020206 0.067118
v 0.063265 0.022065 0.080174
v 0.047593 0.021598 0.085879
v 0.034362 0.016286 0.076555
v 0.029075 0.016218 0.058933
v 0.040311 0.024596 0.044445
v 0.058217 0.016218 0.040508
v 0.078753 0.050287 0.047507
v 0.081492 0.042850 0.068471
v 0.068432 0.040421 0.085641
v 0.046642 0.044159 0.089678
v 0.029546 0.050295 0.078620
v 0.025832 0.050408 0.056680
v 0.038761 0.052367 0.038722
v 0.060529 0.050405 0.034743
v 0.055401 0.039968 0.060240
v 0.055724 0.040022 0.062109
v 0.054577 0.040018 0.063713
v 0.052609 0.040013 0.064062
v 0.051052 0.039969 0.062968
v 0.050658 0.039988 0.060695
v 0.051674 0.040123 0.059154
v 0.053500 0.039984 0.058897
v 0.070989 0.039970 0.050393
v 0.073719 0.039952 0.066226
v 0.064394 0.039917 0.079270
v 0.048615 0.039940 0.082072
v 0.035475 0.039966 0.072844
v 0.032723 0.040056 0.056955
v 0.041686 0.040225 0.043355
v 0.057813 0.040056 0.041091
v 0.055248 0.062522 0.061871
v 0.055374 0.062543 0.062599
v 0.054927 0.062542 0.063223
v 0.054161 0.062540 0.063359
v 0.053555 0.062523 0.062933
v 0.053402 0.062530 0.062048
v 0.053797 0.062583 0.061448
v 0.054508 0.062528 0.061348
v 0.080506 0.037302 0.067122
v 0.066411 0.037868 0.082137
v 0.047823 0.037967 0.087042
v 0.032751 0.035280 0.076894
v 0.028219 0.035299 0.057217
v 0.040258 0.040605 0.041078
v 0.060001 0.035297 0.037123
v 0.075464 0.035463 0.050037
v 0.076950 0.053032 0.047793
v 0.073441 0.052388 0.049423
v 0.076227 0.044870 0.066950
v 0.080016 0.045430 0.067949
v 0.065649 0.043089 0.081254
v 0.067651 0.043535 0.084415
v 0.048004 0.046229 0.084524
v 0.047061 0.046742 0.088291
v 0.033549 0.052347 0.074654
v 0.030547 0.052962 0.077155
v 0.030492 0.052353 0.056850
v 0.026978 0.052944 0.056445
v 0.040664 0.052651 0.041738
v 0.038896 0.053315 0.038937
v 0.058674 0.052373 0.039029
v 0.059811 0.052980 0.035693
vn 0.8700 0.1932 -0.4537
vn 0.4432 0.8790 -0.1757
vn 0.5034 0.8080 0.3061
vn 0.9564 0.0038 0.2921
vn 0.5676 0.7969 -0.2067
vn 0.3127 0.8237 -0.4730
vn 0.1720 0.7667 -0.6185
vn 0.6031 0.7152 -0.3532
vn 0.6084 0.7813 0.1393
vn 0.6993 0.6968 0.1593
vn 0.3334 0.7804 0.5290
vn 0.3923 0.6791 0.6204
vn -0.1372 0.7795 0.6112
vn -0.1561 0.6968 0.7001
vn -0.2206 0.8868 -0.4061
vn -0.5442 0.8353 0.0779
vn -0.6148 0.7826 -0.0972
vn -0.3026 0.8121 -0.4989
vn 0.2188 0.5875 -0.7791
vn 0.2646 0.2869 -0.9207
vn 0.8007 0.2357 -0.5508
vn 0.6661 0.5939 -0.4513
vn -0.4509 0.5985 -0.6622
vn -0.5322 0.1539 -0.8325
vn -0.7109 0.6973 -0.0922
vn -0.8956 0.4181 -0.1521
vn -0.5732 0.7424 0.3469
vn -0.7520 0.4511 0.4806
vn -0.1648 0.7389 0.6533
vn -0.1759 0.3729 0.9111
vn 0.3773 0.6803 0.6283
vn 0.4942 0.2949 0.8178
vn 0.7376 0.6483 0.1890
vn 0.9498 0.2742 0.1508
vn 0.2222 -0.2197 -0.9499
vn 0.2351 0.0812 -0.9686
vn 0.8142 -0.2218 -0.5365
vn -0.5217 -0.1727 -0.8354
vn -0.5328 0.0759 -0.8428
vn -0.9615 -0.1462 -0.2327
vn -0.9748 0.0854 -0.2060
vn -0.8176 -0.1526 0.5552
vn -0.7863 0.1721 0.5934
vn -0.1780 -0.3097 0.9340
vn -0.1866 0.0147 0.9823
vn 0.4703 -0.3980 0.7876
vn 0.5166 -0.0932 0.8512
vn 0.9332 -0.3166 0.1702
vn -0.4237 0.7885 0.4457
vn -0.5722 0.7180 0.3964
vn 0.3275 0.8024 0.4990
vn 0.0645 0.8092 0.5840
vn -0.3725 0.8708 0.3209
vn -0.5696 0.8074 -0.1540
vn -0.3239 0.7962 -0.5110
vn 0.1036 0.8087 -0.5790
vn 0.1387 0.8313 -0.5383
vn -0.2920 0.8410 -0.4554
vn -0.3824 0.6909 -0.6135
vn 0.1863 0.6610 -0.7269
vn 0.4809 0.8190 -0.3130
vn 0.5804 0.8043 0.1274
vn 0.3140 0.8035 0.5057
vn -0.1358 0.8144 0.5643
vn -0.4725 0.8316 0.2918
vn -0.5341 0.8397 -0.0982
vn 0.7500 0.6361 0.1811
vn 0.6562 0.6423 -0.3961
vn -0.7232 0.6750 -0.1461
vn -0.6256 0.6613 0.4139
vn -0.1499 0.6480 0.7468
vn 0.4171 0.6336 0.6516
vt 0.349133 0.538192
vt 0.294293 0.435996
vt 0.210002 0.340718
vt 0.135349 1.000000
vt 0.084316 0.302576
vt 0.235425 0.964304
vt 0.307129 0.877006
vt 0.340510 0.766063
vt 0.364326 0.652032
vt 0.274441 0.562047
vt 0.233793 0.486878
vt 0.149087 0.428660
vt 0.087078 0.389520
vt 0.130485 0.930398
vt 0.194170 0.908058
vt 0.246165 0.844608
vt 0.258573 0.745672
vt 0.292890 0.649581
vt 0.129981 0.616055
vt 0.114455 0.561279
vt 0.071647 0.512190
vt 0.009939 0.474905
vt 0.059886 0.853481
vt 0.093204 0.813435
vt 0.117231 0.768802
vt 0.127756 0.717804
vt 0.137763 0.666034
vt 0.446912 0.091624
vt 0.439421 0.087258
vt 0.431813 0.082168
vt 0.423141 0.080478
vt 0.467093 0.131847
vt 0.467065 0.123537
vt 0.464811 0.113052
vt 0.459249 0.106418
vt 0.455765 0.098404
vt 0.504231 0.028595
vt 0.084845 0.626171
vt 0.473355 0.009255
vt 0.080648 0.579618
vt 0.049748 0.539011
vt 0.438234 0.000000
vt 0.034655 0.827236
vt 0.000000 0.518771
vt 0.373036 0.020036
vt 0.517780 0.192483
vt 0.054012 0.786948
vt 0.549576 0.131486
vt 0.073263 0.749346
vt 0.544241 0.088672
vt 0.085570 0.709620
vt 0.535058 0.066238
vt 0.089088 0.668219
vt 0.521435 0.046457
vt 0.385013 0.191223
vt 0.377937 0.153638
vt 0.391951 0.192483
vt 0.373506 0.149117
vt 0.397950 0.188270
vt 0.368984 0.144361
vt 0.364326 0.139632
vt 0.399311 0.180969
vt 0.395293 0.175145
vt 0.386855 0.173609
vt 0.390581 0.169009
vt 0.381060 0.177310
vt 0.386478 0.164539
vt 0.380085 0.184113
vt 0.383001 0.159571
vt 0.130756 0.553186
vt 0.082440 0.501331
vt 0.031553 0.459363
vt 0.073995 0.868334
vt 0.120291 0.838637
vt 0.156114 0.788086
vt 0.161288 0.724440
vt 0.180764 0.663038
vt 0.169177 0.599202
vt 0.123399 0.620295
vt 0.115320 0.623320
vt 0.096764 0.573075
vt 0.107713 0.567296
vt 0.057803 0.528523
vt 0.064654 0.520123
vt 0.004447 0.497753
vt 0.050429 0.837592
vt 0.005538 0.484150
vt 0.055877 0.846069
vt 0.082027 0.801215
vt 0.088781 0.807346
vt 0.103620 0.761381
vt 0.111257 0.765249
vt 0.118436 0.715978
vt 0.125301 0.717321
vt 0.121984 0.668254
vt 0.130632 0.667367
s 1
usemtl Material.002
f 17/19/1 57/79/2 60/82/3 18/20/4
f 65/89/5 63/86/6 36/43/7 37/47/8
f 67/91/9 65/89/5 37/47/8 38/49/10
f 69/93/11 67/91/9 38/49/10 39/51/12
f 71/95/13 69/93/11 39/51/12 40/53/14
f 61/83/15 59/81/16 34/40/17 35/41/18
f 63/85/6 61/83/15 35/41/18 36/44/7
f 8/9/19 16/18/20 9/10/21 1/1/22
f 7/8/23 15/17/24 16/18/20 8/9/19
f 6/7/25 14/16/26 15/17/24 7/8/23
f 5/6/27 13/15/28 14/16/26 6/7/25
f 4/4/29 12/14/30 13/15/28 5/6/27
f 3/3/31 11/12/32 12/13/30 4/5/29
f 2/2/33 10/11/34 11/12/32 3/3/31
f 1/1/22 9/10/21 10/11/34 2/2/33
f 55/77/35 24/27/36 17/19/1 56/78/37
f 54/76/38 23/26/39 24/27/36 55/77/35
f 53/75/40 22/25/41 23/26/39 54/76/38
f 52/74/42 21/24/43 22/25/41 53/75/40
f 51/73/44 20/23/45 21/24/43 52/74/42
f 50/71/46 19/21/47 20/22/45 51/72/44
f 49/70/48 18/20/4 19/21/47 50/71/46
f 56/78/37 17/19/1 18/20/4 49/70/48
f 58/80/49 71/95/13 40/53/14 33/38/50
f 18/20/4 60/82/3 62/84/51 19/21/47
f 19/21/47 62/84/51 64/87/52 20/22/45
f 20/23/45 64/88/52 66/90/53 21/24/43
f 21/24/43 66/90/53 68/92/54 22/25/41
f 22/25/41 68/92/54 70/94/55 23/26/39
f 23/26/39 70/94/55 72/96/56 24/27/36
f 24/27/36 72/96/56 57/79/2 17/19/1
f 32/36/57 31/35/58 47/67/59 48/69/60
f 25/28/61 26/29/62 34/39/17 33/37/50
f 26/29/62 27/30/63 35/42/18 34/39/17
f 27/30/63 28/31/64 36/45/7 35/42/18
f 28/32/64 29/33/65 37/48/8 36/46/7
f 29/33/65 30/34/66 38/50/10 37/48/8
f 30/34/66 31/35/58 39/52/12 38/50/10
f 31/35/58 32/36/57 40/54/14 39/52/12
f 32/36/57 25/28/61 33/37/50 40/54/14
f 42/57/67 41/55/68 48/68/60 47/66/59 46/64/69 45/63/70 44/62/71 43/59/72
f 30/34/66 29/33/65 45/63/70 46/65/69
f 28/31/64 27/30/63 43/60/72 44/61/71
f 26/29/62 25/28/61 41/56/68 42/58/67
f 25/28/61 32/36/57 48/69/60 41/56/68
f 31/35/58 30/34/66 46/65/69 47/67/59
f 29/33/65 28/32/64 44/62/71 45/63/70
f 27/30/63 26/29/62 42/58/67 43/60/72
f 9/10/21 56/78/37 49/70/48 10/11/34
f 10/11/34 49/70/48 50/71/46 11/12/32
f 11/12/32 50/71/46 51/72/44 12/13/30
f 12/14/30 51/73/44 52/74/42 13/15/28
f 13/15/28 52/74/42 53/75/40 14/16/26
f 14/16/26 53/75/40 54/76/38 15/17/24
f 15/17/24 54/76/38 55/77/35 16/18/20
f 16/18/20 55/77/35 56/78/37 9/10/21
f 60/82/3 57/79/2 58/80/49 59/81/16
f 62/84/51 60/82/3 59/81/16 61/83/15
f 64/87/52 62/84/51 61/83/15 63/85/6
f 66/90/53 64/88/52 63/86/6 65/89/5
f 68/92/54 66/90/53 65/89/5 67/91/9
f 70/94/55 68/92/54 67/91/9 69/93/11
f 72/96/56 70/94/55 69/93/11 71/95/13
f 57/79/2 72/96/56 71/95/13 58/80/49
f 59/81/16 58/80/49 33/38/50 34/40/17
