# Blender 3.4.1
# www.blender.org
mtllib Candle_1.mtl
o Cylinder.007.LOW
v -0.077238 -0.000485 0.031550
v -0.087631 0.223219 0.044818
v -0.069955 -0.000615 0.042265
v -0.088067 0.223122 0.045867
v -0.072277 -0.000615 0.055053
v -0.087692 0.222707 0.046861
v -0.082962 -0.000615 0.062454
v -0.086725 0.222219 0.047217
v -0.095729 -0.000485 0.060251
v -0.085733 0.221942 0.046728
v -0.103252 0.000704 0.049793
v -0.085297 0.222040 0.045679
v -0.100886 0.001902 0.036621
v -0.085672 0.222455 0.044685
v -0.089871 0.000704 0.029023
v -0.086638 0.222943 0.044328
v -0.077352 0.044172 0.031587
v -0.077277 0.091885 0.033669
v -0.079272 0.179224 0.032266
v -0.072239 0.177382 0.042266
v -0.071168 0.088651 0.043040
v -0.071410 0.048313 0.041409
v -0.074283 0.177252 0.053761
v -0.073335 0.087697 0.054372
v -0.074008 0.050053 0.053938
v -0.083905 0.177382 0.060374
v -0.082758 0.088651 0.061028
v -0.083759 0.048300 0.061859
v -0.095918 0.179224 0.058103
v -0.094068 0.090712 0.059177
v -0.095676 0.044152 0.060175
v -0.102238 0.183785 0.049084
v -0.100244 0.094151 0.050160
v -0.102422 0.041918 0.050246
v -0.099606 0.187744 0.037446
v -0.098299 0.097219 0.038288
v -0.099745 0.041966 0.037357
v -0.090097 0.183785 0.030239
v -0.087947 0.095510 0.031833
v -0.089114 0.041918 0.029591
v -0.077351 0.225151 0.032589
v -0.076070 0.220335 0.029700
v -0.071088 0.221719 0.042566
v -0.067955 0.217342 0.041788
v -0.073377 0.220741 0.054345
v -0.070587 0.217121 0.056143
v -0.083157 0.221719 0.061298
v -0.082570 0.217342 0.064472
v -0.094830 0.225151 0.059718
v -0.096931 0.220335 0.062080
v -0.102133 0.231081 0.049387
v -0.105346 0.228007 0.050320
v -0.100480 0.234639 0.036883
v -0.102613 0.233632 0.035509
v -0.089778 0.231081 0.030209
v -0.090256 0.228007 0.026898
v -0.095637 0.227875 0.040003
v -0.088649 0.225551 0.035645
v -0.091948 0.221678 0.054915
v -0.096717 0.225551 0.048168
v -0.077939 0.218799 0.051406
v -0.084325 0.219438 0.055947
v -0.080534 0.221678 0.037199
v -0.076444 0.219438 0.043714
v -0.086676 0.234547 0.044386
v -0.085709 0.234059 0.044743
v -0.085334 0.233644 0.045737
v -0.085771 0.233547 0.046786
v -0.086763 0.233823 0.047275
v -0.087729 0.234311 0.046919
v -0.088104 0.234726 0.045925
v -0.087668 0.234824 0.044876
vn -0.2334 -0.0497 -0.9711
vn -0.0770 0.3356 -0.9388
vn 0.5868 0.2124 -0.7814
vn 0.5279 -0.0467 -0.8480
vn 0.8396 -0.0488 0.5410
vn 0.8136 0.2516 0.5242
vn 0.2310 0.2169 0.9485
vn 0.2074 -0.0469 0.9771
vn -0.4690 0.2124 0.8573
vn -0.5539 -0.0462 0.8313
vn -0.8867 0.3356 0.3179
vn -0.9815 -0.0488 0.1849
vn -0.7264 0.5033 -0.4680
vn -0.8377 -0.0528 -0.5436
vn 0.9591 0.2169 -0.1817
vn 0.9758 -0.0467 -0.2136
vn -0.4385 0.8557 0.2747
vn -0.1090 0.7093 0.6965
vn -0.3962 0.6205 0.6768
vn -0.6404 0.7579 0.1240
vn -0.1944 0.0169 -0.9808
vn -0.2111 0.0284 -0.9771
vn 0.5528 0.0208 -0.8331
vn 0.5687 0.0082 -0.8225
vn -0.2080 0.0101 -0.9781
vn 0.5545 0.0172 -0.8320
vn -0.8363 0.0044 -0.5482
vn -0.8403 0.0286 -0.5414
vn -0.8384 0.0338 -0.5441
vn -0.9780 0.0111 0.2082
vn -0.9733 0.0171 0.2290
vn -0.9773 0.0273 0.2099
vn -0.5327 0.0181 0.8461
vn -0.5181 0.0064 0.8553
vn -0.5335 0.0202 0.8455
vn 0.2358 0.0104 0.9717
vn 0.2442 0.0190 0.9695
vn 0.2378 0.0161 0.9712
vn 0.8444 -0.0009 0.5357
vn 0.8470 0.0344 0.5305
vn 0.8477 0.0083 0.5304
vn 0.9827 0.0069 -0.1853
vn 0.9826 0.0242 -0.1842
vn 0.9811 0.0147 -0.1927
vn 0.4751 0.8732 -0.1083
vn 0.4361 0.8987 0.0471
vn 0.3398 0.9147 0.2189
vn 0.2232 0.8987 0.3776
vn 0.0978 0.8732 0.4774
vn -0.0290 0.9261 0.3760
vn 0.0112 0.9999 0.0072
vn 0.3304 0.9261 -0.1819
vn -0.0680 0.9969 -0.0408
vn 0.1462 0.9755 -0.1645
vn 0.5827 0.7965 0.1616
vn 0.5587 0.7474 0.3596
vn 0.1135 0.8975 0.4262
vn -0.0849 0.9757 0.2022
vn 0.3865 0.7960 0.4659
vn 0.4384 0.8957 -0.0739
vn -0.1928 0.8996 -0.3919
vn 0.2838 0.6736 0.6825
vn 0.7064 0.6880 0.1667
vn 0.5468 0.6830 0.4843
vn 0.3417 0.7792 -0.5255
vn 0.6673 0.7082 -0.2303
vn 0.6979 0.5537 -0.4542
vn 0.1489 0.6992 -0.6993
vn -0.4096 0.7940 -0.4492
vn 0.1751 0.4936 0.8519
vn 0.6709 0.4445 0.5935
vn 0.8812 0.4627 0.0976
vt 0.303814 0.888825
vt 0.241475 0.027038
vt 0.417723 0.051618
vt 0.431982 0.054473
vt 0.354164 0.890047
vt 0.436493 0.056661
vt 0.236145 0.025211
vt 0.427341 0.052958
vt 0.000000 0.870171
vt 0.404430 0.889755
vt 0.431982 0.054473
vt 0.231022 0.021763
vt 0.408020 0.048247
vt 0.049955 0.875049
vt 0.226780 0.016748
vt 0.444559 0.060224
vt 0.404430 0.044108
vt 0.100055 0.878770
vt 0.225634 0.009819
vt 0.412868 0.050786
vt 0.436493 0.056661
vt 0.150159 0.878159
vt 0.229402 0.002972
vt 0.258931 0.022286
vt 0.408020 0.048247
vt 0.427341 0.052958
vt 0.202195 0.876851
vt 0.253834 0.026471
vt 0.422580 0.052020
vt 0.417723 0.051618
vt 0.253906 0.883281
vt 0.247607 0.027553
vt 0.422580 0.052020
vt 0.412868 0.050786
vt 0.306096 0.716530
vt 0.310287 0.530094
vt 0.312350 0.197519
vt 0.358266 0.198127
vt 0.354117 0.543011
vt 0.350334 0.700463
vt 0.063311 0.177105
vt 0.404430 0.192593
vt 0.036603 0.530255
vt 0.399525 0.546843
vt 0.021992 0.675492
vt 0.399935 0.693213
vt 0.109032 0.186699
vt 0.082154 0.530687
vt 0.069568 0.687300
vt 0.155046 0.190261
vt 0.127723 0.526410
vt 0.114095 0.707541
vt 0.195167 0.182298
vt 0.171619 0.515787
vt 0.159300 0.719699
vt 0.234740 0.174796
vt 0.219864 0.506307
vt 0.209693 0.722396
vt 0.273339 0.185921
vt 0.267935 0.514795
vt 0.260142 0.724512
vt 0.283572 0.074085
vt 0.289299 0.085748
vt 0.313846 0.058550
vt 0.325187 0.071929
vt 0.137160 0.004019
vt 0.345924 0.015928
vt 0.369687 0.027510
vt 0.112257 0.013962
vt 0.166490 0.050127
vt 0.153739 0.062791
vt 0.196072 0.068970
vt 0.189035 0.080300
vt 0.222666 0.076604
vt 0.219527 0.083289
vt 0.239843 0.079924
vt 0.239620 0.083422
vt 0.257076 0.078641
vt 0.259359 0.085508
vt 0.240551 0.069463
vt 0.256585 0.067371
vt 0.203249 0.056128
vt 0.224565 0.065238
vt 0.168013 0.000000
vt 0.316030 0.009938
vt 0.181648 0.037574
vt 0.277947 0.061029
vt 0.300189 0.045170
vt 0.433424 0.032739
vt 0.430408 0.032735
vt 0.427527 0.030849
vt 0.436431 0.030615
vt 0.430408 0.032735
vt 0.428904 0.032559
vt 0.444559 0.000000
vt 0.427146 0.024944
vt 0.431768 0.033347
vt 0.427146 0.024944
vt 0.427527 0.030849
vt 0.436431 0.030615
vt 0.427527 0.030849
vt 0.444559 0.000000
vt 0.433424 0.032739
vt 0.428904 0.032559
vt 0.427146 0.024944
vt 0.436431 0.030615
vt 0.430408 0.032735
vt 0.431768 0.033347
vt 0.431768 0.033347
vt 0.428904 0.032559
vt 0.433424 0.032739
s 1
usemtl Material
f 38/59/1 56/79/2 42/63/3 19/37/4
f 23/41/5 46/69/6 48/71/7 26/47/8
f 26/47/8 48/71/7 50/73/9 29/50/10
f 29/50/10 50/73/9 52/75/11 32/53/12
f 32/53/12 52/75/11 54/77/13 35/56/14
f 35/56/14 54/77/13 56/79/2 38/59/1
f 19/37/4 42/63/3 44/65/15 20/38/16
f 4/6/17 6/11/18 70/103/19 71/106/20
f 20/38/16 44/65/15 46/68/6 23/42/5
f 15/31/21 40/61/22 17/35/23 1/1/24
f 40/61/22 39/60/25 18/36/26 17/35/23
f 35/56/14 38/59/1 39/60/25 36/57/27
f 13/27/28 37/58/29 40/61/22 15/31/21
f 37/58/29 36/57/27 39/60/25 40/61/22
f 32/53/12 35/56/14 36/57/27 33/54/30
f 11/22/31 34/55/32 37/58/29 13/27/28
f 34/55/32 33/54/30 36/57/27 37/58/29
f 29/50/10 32/53/12 33/54/30 30/51/33
f 9/18/34 31/52/35 34/55/32 11/22/31
f 31/52/35 30/51/33 33/54/30 34/55/32
f 26/47/8 29/50/10 30/51/33 27/48/36
f 7/14/37 28/49/38 31/52/35 9/18/34
f 28/49/38 27/48/36 30/51/33 31/52/35
f 23/41/5 26/47/8 27/48/36 24/43/39
f 5/9/40 25/45/41 28/49/38 7/14/37
f 25/45/41 24/43/39 27/48/36 28/49/38
f 20/38/16 23/42/5 24/44/39 21/39/42
f 3/5/43 22/40/44 25/46/41 5/10/40
f 22/40/44 21/39/42 24/44/39 25/46/41
f 18/36/26 19/37/4 20/38/16 21/39/42
f 1/1/24 17/35/23 22/40/44 3/5/43
f 17/35/23 18/36/26 21/39/42 22/40/44
f 44/65/15 42/63/3 41/62/45 43/64/46
f 46/68/6 44/65/15 43/64/46 45/67/47
f 48/71/7 46/69/6 45/66/47 47/70/48
f 50/73/9 48/71/7 47/70/48 49/72/49
f 52/75/11 50/73/9 49/72/49 51/74/50
f 54/77/13 52/75/11 51/74/50 53/76/51
f 56/79/2 54/77/13 53/76/51 55/78/52
f 42/63/3 56/79/2 55/78/52 41/62/45
f 47/70/48 45/66/47 61/84/53 62/86/54
f 53/76/51 51/74/50 60/83/55 57/80/56
f 43/64/46 41/62/45 63/87/57 64/88/58
f 41/62/45 55/78/52 58/81/59 63/87/57
f 49/72/49 47/70/48 62/86/54 59/82/60
f 55/78/52 53/76/51 57/80/56 58/81/59
f 45/67/47 43/64/46 64/88/58 61/85/53
f 51/74/50 49/72/49 59/82/60 60/83/55
f 4/7/17 2/2/61 58/81/59 57/80/56
f 8/15/62 6/12/18 60/83/55 59/82/60
f 12/23/63 10/19/64 62/86/54 61/84/53
f 2/2/61 16/32/65 63/87/57 58/81/59
f 6/12/18 4/7/17 57/80/56 60/83/55
f 10/19/64 8/15/62 59/82/60 62/86/54
f 14/28/66 12/24/63 61/85/53 64/88/58
f 16/32/65 14/28/66 64/88/58 63/87/57
f 66/92/67 65/89/68 72/109/69 71/107/20 70/104/19 69/101/70 68/98/71 67/95/72
f 10/20/64 12/25/63 67/96/72 68/99/71
f 8/16/62 10/21/64 68/100/71 69/102/70
f 6/13/18 8/17/62 69/102/70 70/105/19
f 16/33/65 2/3/61 72/110/69 65/90/68
f 2/4/61 4/8/17 71/108/20 72/111/69
f 12/26/63 14/29/66 66/93/67 67/97/72
f 14/30/66 16/34/65 65/91/68 66/94/67
f 38/59/1 19/37/4 18/36/26 39/60/25
