# This file uses meters as units for non-parametric coordinates.

mtllib crystal4.mtl
v -1.068949 -2.957684 0.794558
v 0.148922 -2.957684 0.794558
v -2.164406 5.089977 1.325283
v 0.923138 5.062267 0.854305
v -2.293396 5.062267 -2.164406
v 1.067474 5.062267 -2.164406
v -1.068949 -2.957684 -0.794558
v 0.391884 -2.957684 -0.794558
v -2.164406 5.722610 0.771667
v 0.923138 5.750320 0.428734
v 1.067474 5.750320 -2.164406
v -2.164406 5.750320 -2.164406
v -0.902817 8.661926 -0.791054
v -0.194113 8.661926 -1.783658
v -0.902817 8.661926 -1.783658
vt 0.449972 0.456854
vt 0.407766 0.456967
vt 0.230963 0.636481
vt 0.486791 0.204497
vt 0.445345 0.950528
vt 0.422437 0.890016
vt 0.838903 0.539442
vt 0.721998 0.539756
vt 0.384081 0.797249
vt 0.323550 0.328637
vt 0.452262 0.540480
vt 0.255368 0.661609
vt 0.485385 0.177269
vt 0.386586 0.820304
vt 0.738946 0.539710
vt 0.424304 0.061486
vt 0.833401 0.478350
vt 0.445279 0.889955
vt 0.480355 0.820052
vt 0.385274 0.061591
vt 0.384058 0.177541
vt 0.731246 0.478624
vt 0.486596 0.796974
vt 0.349894 0.635729
vt 0.386918 0.204765
vt 0.716939 0.456137
vt 0.401168 0.540617
vt 0.268428 0.314896
vt 0.348121 0.656910
vt 0.349900 0.758936
vn 0.108461 -0.034342 0.993507
vn 0.108461 -0.034342 0.993507
vn 0.108461 -0.034342 0.993507
vn 0.108461 -0.034342 0.993507
vn 0.000000 1.000000 0.000000
vn 0.000000 1.000000 0.000000
vn 0.000000 1.000000 0.000000
vn 0.000000 -0.168367 -0.985725
vn 0.000000 -0.168367 -0.985725
vn 0.000000 -0.168367 -0.985724
vn 0.000000 -0.168367 -0.985725
vn 0.000000 -1.000000 0.000000
vn 0.000000 -1.000000 0.000000
vn 0.000000 -1.000000 0.000000
vn 0.000000 -1.000000 0.000000
vn 0.993053 -0.082942 0.083468
vn 0.993053 -0.082942 0.083468
vn 0.993053 -0.082942 0.083468
vn 0.993053 -0.082942 0.083468
vn -0.989595 -0.141529 0.025906
vn -0.989595 -0.141529 0.025906
vn -0.989595 -0.141529 0.025906
vn -0.989595 -0.141529 0.025906
vn 0.105290 0.592271 0.798830
vn 0.105290 0.592271 0.798830
vn 0.105290 0.592271 0.798830
vn 0.105290 0.592271 0.798830
vn 0.998554 0.015885 0.051366
vn 0.998554 0.015885 0.051366
vn 0.998554 0.015885 0.051366
vn 0.998554 0.015885 0.051366
vn 0.000000 0.000000 -1.000000
vn 0.000000 0.000000 -1.000000
vn 0.000000 0.000000 -1.000000
vn 0.000000 0.000000 -1.000000
vn -0.994222 0.105471 0.019958
vn -0.994222 0.105471 0.019958
vn -0.994222 0.105471 0.019958
vn -0.994222 0.105471 0.019958
vn 0.281042 0.515403 0.809552
vn 0.281042 0.515403 0.809552
vn 0.281042 0.515403 0.809552
vn 0.281042 0.515403 0.809552
vn 0.918790 0.391420 0.051141
vn 0.918790 0.391420 0.051141
vn 0.918790 0.391420 0.051141
vn 0.000000 0.129665 -0.991558
vn 0.000000 0.129665 -0.991558
vn 0.000000 0.129665 -0.991558
vn 0.000000 0.129665 -0.991558
vn -0.918045 0.396467 0.002796
vn -0.918045 0.396467 0.002796
vn -0.918045 0.396467 0.002796
vn -0.918045 0.396467 0.002796
s off
usemtl initialShadingGroup
f 1/1/1 2/2/2 4/25/3 3/4/4
f 13/5/5 14/6/6 15/18/7
f 5/23/8 6/9/9 8/27/10 7/11/11
f 7/11/12 8/27/13 2/2/14 1/1/15
f 2/28/16 8/10/17 6/24/18 4/3/19
f 7/11/20 1/1/21 3/26/22 5/8/23
f 3/4/24 4/25/25 10/21/26 9/13/27
f 4/3/28 6/24/29 11/29/30 10/12/31
f 6/9/32 5/23/33 12/19/34 11/14/35
f 5/8/36 3/26/37 9/22/38 12/15/39
f 9/13/40 10/21/41 14/20/42 13/16/43
f 10/12/44 11/29/45 14/30/46
f 11/14/47 12/19/48 15/18/49 14/6/50
f 12/15/51 9/22/52 13/17/53 15/7/54
