# This file uses meters as units for non-parametric coordinates.

mtllib matchboxInner_uv.mtl
v -3.191418 26.512759 -2.585558
v -3.297344 26.545581 -2.484171
v -3.181866 26.639407 -2.505274
v -4.387371 13.739230 0.411162
v -4.483532 13.851825 0.385596
v -4.377606 13.819003 0.284208
v -3.081249 27.220141 0.606917
v -3.186962 27.314502 0.478728
v -3.299908 27.225116 0.501005
v -3.201031 27.122821 0.628805
v -4.366497 14.650851 3.448431
v -4.486736 14.524646 3.370116
v -4.394604 14.414981 3.397192
v -4.266735 14.534076 3.474944
v 3.416126 26.535968 0.768133
v 3.536549 26.616229 0.643355
v 3.444446 26.726825 0.620421
v 3.316395 26.652743 0.741621
v 2.130909 13.966662 3.609648
v 2.236805 13.826373 3.534743
v 2.349750 13.916705 3.516607
v 2.250629 14.063983 3.587759
v 3.443165 26.051837 -2.365785
v 3.539326 25.939258 -2.340227
v 3.433613 25.925189 -2.446070
v 2.247425 13.231433 0.423704
v 2.353107 13.245486 0.529547
v 2.237659 13.151660 0.550650
v -3.031597 27.158877 0.620817
v -3.149243 27.064227 0.642111
v -3.041271 27.031940 0.543867
v -4.187267 14.767963 3.315390
v -4.303692 14.699267 3.437544
v -4.206677 14.584598 3.463576
v -4.093060 14.657641 3.340437
v 1.987415 14.118365 3.468466
v 2.081257 14.027942 3.595740
v 2.198872 14.122577 3.574454
v 2.100544 14.210315 3.447783
v 3.353321 26.487536 0.779021
v 3.256306 26.602222 0.752981
v 3.246570 26.474277 0.676253
v -4.078686 14.174243 0.724386
v -4.184582 14.207080 0.825789
v -4.088451 14.094485 0.851347
v -3.038769 26.468738 -1.946290
v -2.942516 26.332706 -2.024362
v 1.997517 13.635364 0.852324
v 1.987751 13.555591 0.979284
v 2.103229 13.649417 0.958182
v 3.133716 25.793811 -1.896425
v 3.249042 25.911090 -1.813906
vt 0.278030 0.437591
vt 0.278030 0.440537
vt 0.153376 0.440537
vt 0.153376 0.437591
vt 0.281014 0.437591
vt 0.278030 0.192419
vt 0.281014 0.192419
vt 0.279970 0.440537
vt 0.279970 0.498139
vt 0.278030 0.498139
vt 0.278030 0.189675
vt 0.153376 0.192419
vt 0.153376 0.189675
vt 0.280643 0.189675
vt 0.278030 0.131861
vt 0.280643 0.131861
vt 0.276482 0.500952
vt 0.279970 0.500952
vt 0.278176 0.503464
vt 0.277152 0.503464
vt 0.155552 0.500952
vt 0.153376 0.498139
vt 0.341302 0.436062
vt 0.338469 0.437591
vt 0.338469 0.192419
vt 0.341302 0.195283
vt 0.280643 0.128685
vt 0.277082 0.128685
vt 0.276177 0.127571
vt 0.278717 0.127571
vt 0.153376 0.131861
vt 0.155994 0.128685
vt 0.089263 0.435056
vt 0.089263 0.439049
vt 0.086519 0.436631
vt 0.088703 0.434559
vt 0.092455 0.437591
vt 0.089263 0.194039
vt 0.092455 0.192419
vt 0.092455 0.439049
vt 0.150052 0.437591
vt 0.150052 0.439049
vt 0.153515 0.128685
vt 0.154432 0.127571
vt 0.156954 0.127571
vt 0.151001 0.131861
vt 0.151001 0.189675
vt 0.150052 0.192419
vt 0.277152 0.503464
vt 0.158354 0.503464
vt 0.158354 0.503464
vt 0.345182 0.435233
vt 0.342382 0.435233
vt 0.342382 0.196324
vt 0.345182 0.198502
vt 0.275482 0.124966
vt 0.272813 0.124966
vt 0.272813 0.077634
vt 0.275482 0.077634
vt 0.161816 0.124966
vt 0.159061 0.124966
vt 0.159061 0.077634
vt 0.161816 0.077634
vt 0.086519 0.197604
vt 0.088703 0.195097
vt 0.086519 0.434559
vt 0.272813 0.075120
vt 0.161816 0.075120
vt 0.393101 0.198502
vt 0.395929 0.198502
vt 0.395929 0.433458
vt 0.393101 0.435233
vt 0.277152 0.552654
vt 0.276915 0.555469
vt 0.162221 0.555469
vt 0.158354 0.552654
vt 0.035163 0.197604
vt 0.037986 0.197604
vt 0.037986 0.434559
vt 0.035163 0.433076
vt 0.725337 0.322318
vt 0.725337 0.075120
vt 0.833874 0.075120
vt 0.833874 0.322318
vt 0.162298 0.075120
vn -0.013872 -0.211434 -0.977294
vn 0.075763 0.964720 -0.252140
vn 0.105867 0.962051 -0.251495
vn 0.017264 -0.214195 -0.976638
vn -0.994548 0.088484 -0.055186
vn -0.013872 -0.211434 -0.977294
vn -0.015320 -0.226935 -0.973790
vn -0.995956 0.073416 -0.051791
vn 0.075763 0.964720 -0.252140
vn -0.994548 0.088484 -0.055186
vn -0.994918 0.100657 -0.002657
vn 0.075017 0.977063 -0.199298
vn -0.105803 -0.976687 0.186783
vn -0.015320 -0.226935 -0.973790
vn 0.015816 -0.229695 -0.973134
vn -0.075699 -0.979362 0.187404
vn -0.995956 0.073416 -0.051791
vn -0.105803 -0.976687 0.186783
vn -0.106379 -0.965047 0.239517
vn -0.996377 0.085038 0.001150
vn 0.047999 0.769956 0.636289
vn -0.613952 0.231548 0.754618
vn 0.466227 0.152112 0.871490
vn -0.040579 -0.258332 0.965204
vn 0.075017 0.977063 -0.199298
vn 0.047999 0.769956 0.636289
vn 0.061693 0.769456 0.635714
vn 0.106339 0.974237 -0.198881
vn -0.613952 0.231548 0.754618
vn -0.994918 0.100657 -0.002657
vn -0.996377 0.085038 0.001150
vn -0.613634 0.224858 0.756896
vn -0.613634 0.224858 0.756896
vn -0.063220 -0.420959 0.904874
vn 0.043742 0.572624 0.818651
vn 0.381578 0.174839 0.907651
vn -0.063220 -0.420959 0.904874
vn -0.106379 -0.965047 0.239517
vn -0.075058 -0.967763 0.240419
vn -0.049530 -0.421176 0.905626
vn 0.612068 0.123012 0.781179
vn 0.061693 0.769456 0.635714
vn -0.045705 -0.257100 0.965304
vn -0.468913 0.234925 0.851429
vn 0.996336 -0.075840 0.039524
vn 0.612068 0.123012 0.781179
vn 0.612406 0.115990 0.781988
vn 0.994878 -0.091575 0.042808
vn 0.106339 0.974237 -0.198881
vn 0.996336 -0.075840 0.039524
vn 0.996021 -0.088130 -0.013262
vn 0.105867 0.962051 -0.251495
vn -0.049530 -0.421176 0.905626
vn 0.612406 0.115990 0.781988
vn -0.382199 0.242542 0.891682
vn 0.023440 0.574735 0.818004
vn 0.994878 -0.091575 0.042808
vn -0.075058 -0.967763 0.240419
vn -0.075699 -0.979362 0.187404
vn 0.994613 -0.103192 -0.009844
vn 0.017264 -0.214195 -0.976638
vn 0.996021 -0.088130 -0.013262
vn 0.994613 -0.103192 -0.009844
vn 0.015816 -0.229695 -0.973134
vn -0.040579 -0.258332 0.965204
vn 0.848763 -0.500670 0.170091
vn -0.929951 -0.342928 0.132635
vn -0.045705 -0.257100 0.965304
vn 0.848763 -0.500670 0.170091
vn 0.466227 0.152112 0.871490
vn 0.381578 0.174839 0.907651
vn 0.994968 -0.067958 0.073620
vn 0.994968 -0.067958 0.073620
vn 0.107160 0.980691 -0.163592
vn 0.107052 0.977723 -0.180548
vn 0.995751 -0.071726 0.057755
vn 0.107160 0.980691 -0.163592
vn 0.043742 0.572624 0.818651
vn 0.023440 0.574735 0.818004
vn 0.073953 0.983644 -0.164240
vn 0.073953 0.983644 -0.164240
vn -0.993603 0.108390 0.031687
vn -0.994370 0.104774 0.015850
vn 0.074249 0.980633 -0.181233
vn -0.993603 0.108390 0.031687
vn -0.382199 0.242542 0.891682
vn -0.468913 0.234925 0.851429
vn -0.929951 -0.342928 0.132635
vn 0.016801 0.227131 0.973719
vn 0.107052 0.977723 -0.180548
vn 0.074249 0.980633 -0.181233
vn -0.017235 0.230148 0.973003
vn 0.995751 -0.071726 0.057755
vn 0.016801 0.227131 0.973719
vn 0.021357 0.207188 0.978068
vn 0.849613 -0.505939 0.148938
vn 0.849613 -0.505939 0.148938
vn 0.021357 0.207188 0.978068
vn -0.025405 0.211335 0.977084
vn -0.930833 -0.348038 0.111447
vn -0.017235 0.230148 0.973003
vn -0.994370 0.104774 0.015850
vn -0.930833 -0.348038 0.111447
vn -0.025405 0.211335 0.977084
vn -0.994548 0.088484 -0.055186
vn -0.995956 0.073416 -0.051791
vn -0.996377 0.085038 0.001150
vn -0.994918 0.100657 -0.002657
vn 0.021357 0.207188 0.978068
vn 0.016801 0.227131 0.973719
vn -0.017235 0.230148 0.973003
vn -0.025405 0.211335 0.977084
vn 0.996336 -0.075840 0.039524
vn 0.994878 -0.091575 0.042808
vn 0.994613 -0.103192 -0.009844
vn 0.996021 -0.088130 -0.013262
vn 0.017264 -0.214195 -0.976638
vn 0.015816 -0.229695 -0.973134
vn -0.015320 -0.226935 -0.973790
vn -0.013872 -0.211434 -0.977294
vn -0.105803 -0.976687 0.186783
vn -0.075699 -0.979362 0.187404
vn -0.075058 -0.967763 0.240419
vn -0.106379 -0.965047 0.239517
vn 0.105867 0.962051 -0.251495
vn 0.075763 0.964720 -0.252140
vn 0.075017 0.977063 -0.199298
vn 0.106339 0.974237 -0.198881
vn -0.613952 0.231548 0.754618
vn -0.613634 0.224858 0.756896
vn 0.381578 0.174839 0.907651
vn 0.466227 0.152112 0.871490
vn -0.063220 -0.420959 0.904874
vn -0.049530 -0.421176 0.905626
vn 0.023440 0.574735 0.818004
vn 0.043742 0.572624 0.818651
vn 0.612406 0.115990 0.781988
vn 0.612068 0.123012 0.781179
vn -0.468913 0.234925 0.851429
vn -0.382199 0.242542 0.891682
vn 0.061693 0.769456 0.635714
vn 0.047999 0.769956 0.636289
vn -0.040579 -0.258332 0.965204
vn -0.045705 -0.257100 0.965304
vn 0.848763 -0.500670 0.170091
vn 0.994968 -0.067958 0.073620
vn 0.995751 -0.071726 0.057755
vn 0.849613 -0.505939 0.148938
vn 0.107160 0.980691 -0.163592
vn 0.073953 0.983644 -0.164240
vn 0.074249 0.980633 -0.181233
vn 0.107052 0.977723 -0.180548
vn -0.993603 0.108390 0.031687
vn -0.929951 -0.342928 0.132635
vn -0.930833 -0.348038 0.111447
vn -0.994370 0.104774 0.015850
vn -0.929951 -0.342928 0.132635
vn 0.848763 -0.500670 0.170091
vn 0.849613 -0.505939 0.148938
vn -0.930833 -0.348038 0.111447
vn -0.013872 -0.211434 -0.977294
vn -0.994548 0.088484 -0.055186
vn 0.075763 0.964720 -0.252140
vn -0.105803 -0.976687 0.186783
vn -0.995956 0.073416 -0.051791
vn -0.015320 -0.226935 -0.973790
vn 0.047999 0.769956 0.636289
vn 0.075017 0.977063 -0.199298
vn -0.994918 0.100657 -0.002657
vn -0.613952 0.231548 0.754618
vn -0.613634 0.224858 0.756896
vn -0.996377 0.085038 0.001150
vn -0.106379 -0.965047 0.239517
vn -0.063220 -0.420959 0.904874
vn 0.612068 0.123012 0.781179
vn 0.996336 -0.075840 0.039524
vn 0.106339 0.974237 -0.198881
vn 0.061693 0.769456 0.635714
vn -0.049530 -0.421176 0.905626
vn -0.075058 -0.967763 0.240419
vn 0.994878 -0.091575 0.042808
vn 0.612406 0.115990 0.781988
vn 0.105867 0.962051 -0.251495
vn 0.996021 -0.088130 -0.013262
vn 0.017264 -0.214195 -0.976638
vn 0.015816 -0.229695 -0.973134
vn 0.994613 -0.103192 -0.009844
vn -0.075699 -0.979362 0.187404
vn -0.040579 -0.258332 0.965204
vn 0.466227 0.152112 0.871490
vn 0.848763 -0.500670 0.170091
vn 0.994968 -0.067958 0.073620
vn 0.381578 0.174839 0.907651
vn 0.043742 0.572624 0.818651
vn 0.107160 0.980691 -0.163592
vn 0.073953 0.983644 -0.164240
vn 0.023440 0.574735 0.818004
vn -0.382199 0.242542 0.891682
vn -0.993603 0.108390 0.031687
vn -0.468913 0.234925 0.851429
vn -0.045705 -0.257100 0.965304
vn -0.929951 -0.342928 0.132635
vn 0.016801 0.227131 0.973719
vn 0.995751 -0.071726 0.057755
vn 0.107052 0.977723 -0.180548
vn -0.017235 0.230148 0.973003
vn 0.074249 0.980633 -0.181233
vn -0.994370 0.104774 0.015850
s off
usemtl matchbox_complete_uv1:initialShadingGroup
f 1/1/1 3/2/2 23/3/3 25/4/4
f 2/5/5 1/1/6 6/6/7 5/7/8
f 3/2/9 2/8/10 9/9/11 8/10/12
f 4/11/13 6/6/14 26/12/15 28/13/16
f 5/14/17 4/11/18 13/15/19 12/16/20
f 7/17/21 10/18/22 30/19/23 29/20/24
f 8/10/25 7/17/26 18/21/27 17/22/28
f 10/23/29 9/24/30 12/25/31 11/26/32
f 11/27/33 14/28/34 34/29/35 33/30/36
f 14/28/37 13/15/38 20/31/39 19/32/40
f 15/33/41 18/34/42 41/35/43 40/36/44
f 16/37/45 15/33/46 22/38/47 21/39/48
f 17/40/49 16/37/50 24/41/51 23/42/52
f 19/32/53 22/43/54 38/44/55 37/45/56
f 21/46/57 20/31/58 28/13/59 27/47/60
f 25/4/61 24/41/62 27/48/63 26/12/64
f 29/20/65 31/49/66 42/50/67 41/51/68
f 31/52/69 30/53/70 33/54/71 32/55/72
f 32/56/73 35/57/74 45/58/75 44/59/76
f 35/57/77 34/29/78 37/45/79 36/60/80
f 36/60/81 39/61/82 50/62/83 49/63/84
f 39/64/85 38/65/86 40/36/87 42/66/88
f 43/67/89 45/58/90 49/63/91 48/68/92
f 44/69/93 43/70/94 47/71/95 46/72/96
f 46/73/97 47/74/98 51/75/99 52/76/100
f 48/77/101 50/78/102 52/79/103 51/80/104
f 2/5/105 5/7/106 12/25/107 9/24/108
f 47/81/109 43/82/110 48/83/111 51/84/112
f 16/37/113 21/39/114 27/48/115 24/41/116
f 25/4/117 26/12/118 6/6/119 1/1/120
f 4/11/121 28/13/122 20/31/123 13/15/124
f 23/3/125 3/2/126 8/10/127 17/22/128
f 10/23/129 11/26/130 33/54/131 30/53/132
f 14/28/133 19/32/134 37/45/135 34/29/136
f 22/38/137 15/33/138 40/36/139 38/65/140
f 18/21/141 7/17/142 29/20/143 41/51/144
f 31/52/145 32/55/146 44/69/147 46/72/148
f 35/57/149 36/60/150 49/63/151 45/58/152
f 39/64/153 42/66/154 52/79/155 50/78/156
f 42/50/157 31/49/158 46/73/159 52/76/160
f 1/1/161 2/8/162 3/2/163
f 4/11/164 5/14/165 6/6/166
f 7/17/167 8/10/168 9/9/169 10/18/170
f 11/27/171 12/16/172 13/15/173 14/28/174
f 15/33/175 16/37/176 17/40/177 18/34/178
f 19/32/179 20/31/180 21/46/181 22/43/182
f 23/42/183 24/41/184 25/4/185
f 26/12/186 27/47/187 28/13/188
f 29/20/189 30/19/190 31/49/191
f 32/56/192 33/30/193 34/29/194 35/57/195
f 36/60/196 37/45/197 38/44/198 39/61/199
f 40/36/200 41/35/201 42/66/202
f 43/67/203 44/59/204 45/58/205
f 48/68/206 49/63/207 50/85/208
