# This file uses meters as units for non-parametric coordinates.

mtllib plank3.mtl
v 31.090567 47.002121 -56.598354
v 25.384483 45.119858 -83.573181
v -4.552673 47.282021 -59.688385
v -13.035637 45.169136 -85.974625
v 74.048347 44.199257 -53.029491
v 78.136490 44.085365 -84.151215
v 102.718597 50.699661 -92.490128
v 78.132217 48.474125 -82.854134
v 78.136490 47.596458 -84.151199
v 104.420441 52.687759 -56.340328
v 74.052643 49.605835 -54.326523
v 74.048347 48.524628 -53.029491
v -43.019688 49.124374 -86.574272
v -34.131184 49.012917 -50.518627
v 25.384483 49.445229 -83.573181
v 25.379087 50.526436 -81.926132
v -13.041016 50.575714 -84.327667
v -13.035637 49.494507 -85.974625
v 31.095879 52.408707 -57.883522
v 31.090567 51.327492 -56.598354
v -4.547386 52.688606 -61.335350
v -4.552673 51.607391 -59.688385
v 104.172287 47.281181 -54.695156
v 105.502884 47.281181 -56.702065
v 105.502884 51.606552 -56.702049
v 104.172287 51.606552 -54.695141
v 103.798584 45.293083 -92.111923
v 102.481110 45.293083 -94.138855
v 102.481110 49.618450 -94.138847
v 103.798584 49.618450 -92.111923
v -42.771442 43.717796 -88.219414
v -44.102055 43.717796 -86.212440
v -44.102055 48.043167 -86.212440
v -42.771442 48.043167 -88.219414
v -35.211308 43.606339 -50.896805
v -33.893787 43.606339 -48.869884
v -33.893787 47.931709 -48.869884
v -35.211308 47.931709 -50.896805
vt 0.113923 0.769876
vt 0.187425 0.757425
vt 0.175310 0.853174
vt 0.103309 0.873174
vt 0.200631 0.934251
vt 0.093462 0.953107
vt 0.117885 0.627594
vt 0.201370 0.641737
vt 0.357527 0.553052
vt 0.362286 0.553408
vt 0.355451 0.623326
vt 0.351209 0.624631
vt 0.355537 0.624472
vt 0.356397 0.769220
vt 0.351105 0.770098
vt 0.269010 0.641121
vt 0.273535 0.640959
vt 0.286730 0.753784
vt 0.282213 0.753493
vt 0.358562 0.953450
vt 0.356071 0.956952
vt 0.267140 0.933834
vt 0.265278 0.929598
vt 0.260044 0.929675
vt 0.284124 0.849735
vt 0.289695 0.848750
vt 0.356342 0.770385
vt 0.358653 0.871998
vt 0.353354 0.872165
vt 0.284373 0.848300
vt 0.269044 0.564480
vt 0.252813 0.566257
vt 0.264077 0.565082
vt 0.257415 0.641357
vt 0.372303 0.556135
vt 0.364065 0.624078
vt 0.353187 0.968018
vt 0.265346 0.945421
vt 0.354153 0.537580
vt 0.355964 0.549090
vt 0.269319 0.560405
vt 0.268655 0.548953
vt 0.270594 0.753370
vt 0.272738 0.848178
vt 0.367835 0.770473
vt 0.370280 0.870902
vt 0.272265 0.849390
vt 0.248553 0.928278
vt 0.358693 0.872682
vt 0.370296 0.873242
vt 0.375394 0.952792
vt 0.363805 0.953009
vt 0.364410 0.624113
vt 0.367883 0.767287
vt 0.194724 0.556158
vt 0.200005 0.559940
vt 0.093375 0.560898
vt 0.098953 0.557519
vt 0.365128 0.540318
vt 0.369705 0.544645
vt 0.357517 0.549151
vt 0.365524 0.966597
vt 0.359321 0.968348
vt 0.362288 0.955745
vt 0.262339 0.944778
vt 0.256599 0.942108
vt 0.260968 0.931794
vt 0.195000 0.937540
vt 0.098699 0.956951
vt 0.256973 0.556086
vt 0.261531 0.551714
vn -0.026203 -0.998100 0.055767
vn -0.031114 -0.998309 0.049096
vn 0.034730 -0.998369 0.045316
vn 0.051495 -0.998120 0.033249
vn 0.086465 -0.996230 0.007110
vn 0.084884 -0.996367 0.006925
vn 0.022393 -0.999169 0.034072
vn 0.005813 -0.999390 0.034446
vn -0.277510 0.809978 -0.516647
vn -0.277510 0.809978 -0.516647
vn -0.089614 0.833062 -0.545873
vn -0.063671 0.833845 -0.548314
vn 0.028498 0.833799 -0.551332
vn 0.032524 0.993563 -0.108517
vn -0.021801 0.784535 0.619701
vn -0.021951 0.784676 0.619517
vn -0.025752 0.785954 0.617748
vn -0.023278 0.783891 0.620462
vn -0.696753 0.695450 0.175740
vn -0.696753 0.695450 0.175740
vn -0.697324 0.693879 0.179642
vn -0.698195 0.691386 0.185769
vn 0.094586 0.835388 0.541462
vn 0.094586 0.835388 0.541462
vn 0.025987 0.822724 0.567847
vn 0.012939 0.819801 0.572503
vn 0.019411 0.835778 -0.548724
vn -0.048076 0.996220 -0.072356
vn -0.106882 0.992920 -0.051824
vn -0.028968 0.998043 -0.055412
vn -0.006865 0.998387 -0.056366
vn -0.106882 0.992920 -0.051824
vn 0.055209 -0.000002 0.998475
vn 0.055209 -0.000002 0.998475
vn -0.025285 -0.000001 0.999680
vn -0.026862 -0.000001 0.999639
vn -0.379560 0.000003 -0.925167
vn -0.379560 0.000003 -0.925167
vn -0.134347 0.000002 -0.990934
vn -0.137933 0.000002 -0.990442
vn -0.969742 0.000000 0.244133
vn -0.969742 0.000000 0.244133
vn -0.964597 0.000000 0.263729
vn -0.964616 0.000000 0.263657
vn 0.998844 0.000002 -0.048075
vn 0.998844 0.000002 -0.048075
vn 0.998844 0.000002 -0.048075
vn 0.998844 0.000002 -0.048075
vn 0.039585 0.996910 -0.067844
vn -0.033321 0.998097 -0.051882
vn -0.084375 0.000000 0.996434
vn -0.084457 0.000000 0.996427
vn 0.110120 0.000000 0.993918
vn 0.125492 0.000000 0.992095
vn 0.022202 0.000001 -0.999754
vn 0.021538 0.000001 -0.999768
vn 0.068107 0.000000 -0.997678
vn 0.067916 0.000000 -0.997691
vn -0.086926 0.996181 -0.008177
vn -0.086926 0.996181 -0.008177
vn 0.345948 0.000000 0.938254
vn 0.345948 0.000000 0.938254
vn 0.075277 0.000000 -0.997163
vn 0.075277 0.000000 -0.997163
vn -0.000401 -0.998591 0.053063
vn 0.083660 -0.995948 0.032982
vn 0.083503 -0.995960 0.033019
vn -0.000401 -0.998591 0.053063
vn -0.046384 0.806809 0.588989
vn -0.046384 0.806809 0.588989
vn 0.706388 0.703453 -0.078554
vn 0.707288 0.701833 -0.084698
vn 0.705511 0.704955 -0.072752
vn 0.705511 0.704955 -0.072752
vn 0.000661 0.835841 -0.548972
vn 0.000661 0.835841 -0.548972
vn 0.838449 0.000001 -0.544979
vn 0.838449 0.000001 -0.544979
vn 0.838449 0.000001 -0.544979
vn 0.838449 0.000001 -0.544979
vn -0.833460 0.000000 -0.552579
vn -0.833460 0.000000 -0.552579
vn -0.833460 0.000000 -0.552579
vn -0.833460 0.000000 -0.552579
vn -0.838439 0.000000 0.544995
vn -0.838439 0.000000 0.544995
vn 0.698954 0.544713 0.463412
vn 0.698954 0.544713 0.463412
vn 0.698954 0.544713 0.463412
vn 0.703993 0.543141 -0.457593
vn -0.698991 0.544653 -0.463427
vn -0.698991 0.544653 -0.463427
vn -0.698991 0.544653 -0.463427
vn -0.703957 0.543201 0.457577
vn 0.000023 -0.999996 -0.002991
vn 0.000023 -0.999996 -0.002991
vn 0.833455 -0.000003 0.552588
vn 0.833455 -0.000003 0.552588
vn 0.833455 -0.000003 0.552588
vn 0.833455 -0.000003 0.552588
s 1
usemtl planks:initialShadingGroup
f 2/1/1 1/2/2 3/3/3 4/4/4
f 4/4/4 3/3/3 36/5/5 31/6/6
f 6/7/7 5/8/8 1/2/2 2/1/1
s 2
f 7/9/9 29/10/10 9/11/11 8/12/12
f 8/12/12 9/13/11 15/14/13 16/15/14
s 3
f 12/16/15 11/17/16 19/18/17 20/19/18
s 4
f 13/20/19 33/21/20 38/22/21 14/23/22
s 3
f 14/23/23 37/24/24 22/25/25 21/26/26
s 2
f 16/15/14 15/27/13 18/28/27 17/29/28
s 3
f 20/19/18 19/18/17 21/26/26 22/30/25
s 2
f 7/9/29 8/12/30 11/17/31 10/31/32
s 6
f 23/32/33 26/33/34 12/16/35 5/34/36
s 7
f 29/10/37 28/35/38 6/36/39 9/11/40
s 8
f 33/21/41 32/37/42 35/38/43 38/22/44
s off
f 27/39/45 30/40/46 25/41/47 24/42/48
s 2
f 19/18/49 16/15/14 17/29/28 21/26/50
s 6
f 1/43/51 20/19/52 22/30/53 3/44/54
s 7
f 15/27/55 2/45/56 4/46/57 18/28/58
s 2
f 21/26/50 17/29/28 13/20/59 14/23/60
s 6
f 3/47/54 22/25/53 37/24/61 36/48/62
s 7
f 18/49/58 4/50/57 31/51/63 34/52/64
s 2
f 11/17/31 8/12/30 16/15/14 19/18/49
s 6
f 5/34/36 12/16/35 20/19/52 1/43/51
s 7
f 9/13/40 6/53/39 2/54/56 15/14/55
s 1
f 24/55/65 23/56/66 28/57/67 27/58/68
s 3
f 26/33/69 10/31/70 11/17/16 12/16/15
s 9
f 30/40/71 7/9/72 10/31/73 25/41/74
s 2
f 34/52/75 13/20/76 17/29/28 18/49/27
s off
f 27/59/77 28/60/78 29/10/79 30/61/80
f 31/62/81 32/63/82 33/21/83 34/64/84
s 8
f 35/65/43 36/66/85 37/67/86 38/22/44
s off
f 25/41/87 10/31/88 26/33/89
s 9
f 29/10/90 7/9/72 30/61/71
s off
f 33/21/91 13/20/92 34/64/93
s 4
f 37/67/94 14/23/22 38/22/21
s 1
f 28/57/67 23/56/66 5/8/8 6/7/7
f 31/6/6 36/5/5 35/68/95 32/69/96
s off
f 26/33/97 23/70/98 24/71/99 25/41/100
