# This file uses meters as units for non-parametric coordinates.

mtllib plank2.mtl
v 25.937845 86.898308 -95.665764
v 30.476278 86.833984 -62.551662
v 51.417934 89.257828 -91.381775
v 67.641373 88.790733 -57.748627
v -11.320629 91.460297 -89.305107
v -23.790257 92.500465 -56.210609
v -39.460621 97.945969 -57.200806
v -23.659054 96.883881 -57.377262
v -23.667728 96.009399 -56.226601
v -46.839527 98.096992 -93.158806
v -11.010139 96.866180 -85.898026
v -11.169682 95.782997 -89.324799
v 97.650482 93.154190 -56.912418
v 107.551331 92.714859 -88.280350
v 30.627228 91.156693 -62.571369
v 30.512037 92.233871 -66.892532
v 67.802177 94.190628 -59.229271
v 67.792320 93.113441 -57.768322
v 26.154509 92.304909 -94.234222
v 26.088793 91.221016 -95.685455
v 51.634525 94.664429 -89.950424
v 51.568882 93.580536 -91.401474
v -46.813457 92.681900 -94.592819
v -48.102749 92.732315 -92.795547
v -47.951801 97.055023 -92.815231
v -46.662502 97.004608 -94.612503
v -40.736279 92.579773 -57.491665
v -39.378613 92.537575 -55.722832
v -39.227665 96.860283 -55.742531
v -40.585331 96.902481 -57.511364
v 97.246918 87.762787 -55.429138
v 98.536255 87.712372 -57.226467
v 98.687202 92.035080 -57.246162
v 97.397873 92.085495 -55.448837
v 108.449677 87.274551 -87.940186
v 107.092018 87.316750 -89.709053
v 107.242966 91.639458 -89.728752
v 108.600632 91.597260 -87.959885
vt 0.317053 0.271558
vt 0.405556 0.260251
vt 0.394061 0.329283
vt 0.301805 0.369756
vt 0.385146 0.474130
vt 0.296180 0.450338
vt 0.297026 0.131488
vt 0.389740 0.157649
vt 0.197702 0.076505
vt 0.202522 0.077257
vt 0.200919 0.117839
vt 0.197043 0.117775
vt 0.200897 0.118077
vt 0.185840 0.263424
vt 0.173899 0.263218
vt 0.110702 0.152139
vt 0.120285 0.152180
vt 0.100278 0.252352
vt 0.095469 0.252161
vt 0.197450 0.444513
vt 0.196824 0.448653
vt 0.115713 0.473010
vt 0.114342 0.469044
vt 0.109507 0.468392
vt 0.106065 0.320036
vt 0.110912 0.319915
vt 0.185891 0.263935
vt 0.197827 0.363170
vt 0.192979 0.363462
vt 0.095455 0.252171
vt 0.106070 0.319499
vt 0.103850 0.054307
vt 0.383679 0.055957
vt 0.394978 0.054743
vt 0.401246 0.155251
vt 0.284701 0.090567
vt 0.294690 0.095083
vt 0.287606 0.131100
vt 0.297986 0.464603
vt 0.301443 0.453643
vt 0.379935 0.477326
vt 0.378170 0.488562
vt 0.297532 0.091115
vt 0.289959 0.082736
vt 0.373462 0.043638
vt 0.377641 0.054192
vt 0.416388 0.264050
vt 0.405472 0.331104
vt 0.305387 0.271333
vt 0.290214 0.369598
vt 0.405389 0.331094
vt 0.396563 0.474550
vt 0.284728 0.449796
vt 0.401081 0.155354
vt 0.416530 0.256504
vt 0.098992 0.054831
vt 0.110608 0.151202
vt 0.196974 0.072307
vt 0.105298 0.050364
vt 0.202314 0.443943
vt 0.197841 0.363802
vt 0.379626 0.042819
vt 0.292308 0.462194
vt 0.384479 0.487682
vt 0.099640 0.051768
vt 0.202316 0.074744
vt 0.198726 0.448516
vt 0.110061 0.471480
vn -0.037100 -0.999286 0.007145
vn -0.037529 -0.999264 0.007972
vn -0.034933 -0.999385 0.002971
vn -0.034933 -0.999385 0.002971
vn -0.034933 -0.999385 0.002971
vn -0.034933 -0.999385 0.002971
vn -0.031236 -0.999453 0.010862
vn -0.035596 -0.999308 0.010806
vn 0.061385 0.800509 0.596169
vn 0.044963 0.283229 0.957998
vn 0.141559 0.245766 0.958937
vn 0.111218 0.795953 0.595054
vn 0.169302 0.263753 0.949616
vn 0.124921 0.794345 0.594484
vn -0.210767 0.243460 -0.946734
vn -0.117492 0.764779 -0.633489
vn -0.117492 0.764779 -0.633489
vn -0.212939 0.219628 -0.952061
vn 0.715148 0.660802 0.227825
vn 0.930984 0.186954 0.313555
vn 0.956635 0.138098 0.256474
vn 0.718151 0.665355 0.203868
vn 0.718151 0.665355 0.203868
vn 0.038440 0.275299 -0.960590
vn 0.079961 0.253642 -0.963988
vn 0.070330 0.796967 -0.599914
vn -0.132945 0.261805 0.955920
vn -0.062078 0.804401 0.590835
vn 0.061385 0.800509 0.596169
vn 0.043594 0.999033 0.005629
vn 0.207705 -0.011710 -0.978121
vn 0.209186 0.226408 -0.951305
vn -0.210767 0.243460 -0.946734
vn -0.035596 -0.999308 0.010806
vn 0.044963 0.283229 0.957998
vn 0.031284 0.003462 0.999505
vn -0.031236 -0.999453 0.010862
vn 0.141559 0.245766 0.958937
vn 0.930984 0.186954 0.313555
vn 0.944829 -0.031508 0.326045
vn 0.966407 -0.032585 0.254944
vn 0.956635 0.138098 0.256474
vn -0.972772 0.035013 0.229102
vn -0.943169 0.250325 0.218560
vn -0.961229 0.221981 0.163597
vn -0.986223 0.035175 0.161641
vn 0.070330 0.796967 -0.599914
vn -0.037529 -0.999264 0.007972
vn -0.212939 0.219628 -0.952061
vn 0.079961 0.253642 -0.963988
vn -0.034933 -0.999385 0.002971
vn 0.169302 0.263753 0.949616
vn -0.037100 -0.999286 0.007145
vn -0.034933 -0.999385 0.002971
vn -0.132945 0.261805 0.955920
vn 0.715148 0.660802 0.227825
vn 0.718151 0.665355 0.203868
vn 0.038440 0.275299 -0.960590
vn -0.034933 -0.999385 0.002971
vn -0.034933 -0.999385 0.002971
vn -0.065147 0.281669 0.957298
vn -0.986223 0.035175 0.161641
vn 0.207705 -0.011710 -0.978121
vn 0.031284 0.003462 0.999505
vn -0.972772 0.035013 0.229102
vn 0.209186 0.226408 -0.951305
vn -0.943169 0.250325 0.218560
vn 0.061385 0.800509 0.596169
vn 0.043594 0.999033 0.005629
vn -0.961229 0.221981 0.163597
vn -0.065147 0.281669 0.957298
vn 0.715148 0.660802 0.227825
vn 0.207705 -0.011710 -0.978121
vn -0.986223 0.035175 0.161641
vn -0.961229 0.221981 0.163597
vn 0.209186 0.226408 -0.951305
vn 0.031284 0.003462 0.999505
vn 0.044963 0.283229 0.957998
vn -0.034933 -0.999385 0.002971
vn -0.065147 0.281669 0.957298
vn 0.966407 -0.032585 0.254944
vn -0.034933 -0.999385 0.002971
vn 0.038440 0.275299 -0.960590
vn 0.956635 0.138098 0.256474
vn -0.961229 0.221981 0.163597
vn 0.043594 0.999033 0.005629
vn 0.209186 0.226408 -0.951305
vn 0.044963 0.283229 0.957998
vn -0.065147 0.281669 0.957298
vn 0.038440 0.275299 -0.960590
vn 0.718151 0.665355 0.203868
vn 0.956635 0.138098 0.256474
vn 0.966407 -0.032585 0.254944
vn 0.944829 -0.031508 0.326045
s 1
usemtl planks:initialShadingGroup
f 2/1/1 1/2/2 3/3/3 4/4/4
f 4/4/4 3/3/3 36/5/5 31/6/6
f 6/7/7 5/8/8 1/2/2 2/1/1
s 2
f 7/9/9 29/10/10 9/11/11 8/12/12
f 8/12/12 9/13/11 15/14/13 16/15/14
f 12/16/15 11/17/16 19/18/17 20/19/18
s 4
f 13/20/19 33/21/20 38/22/21 14/23/22
s 2
f 14/23/23 37/24/24 22/25/25 21/26/26
f 16/15/14 15/27/13 18/28/27 17/29/28
f 20/30/18 19/18/17 21/26/26 22/31/25
f 7/9/29 8/12/12 11/17/16 10/32/30
s 5
f 23/33/31 26/34/32 12/35/33 5/8/34
s 6
f 29/36/35 28/37/36 6/7/37 9/38/38
s 7
f 33/39/39 32/40/40 35/41/41 38/42/42
s 8
f 27/43/43 30/44/44 25/45/45 24/46/46
s 2
f 19/18/17 16/15/14 17/29/28 21/26/47
s 5
f 1/2/48 20/47/49 22/48/50 3/3/51
s 6
f 15/49/52 2/1/53 4/4/54 18/50/55
s 2
f 21/26/47 17/29/28 13/20/56 14/23/57
s 5
f 3/3/51 22/51/50 37/52/58 36/5/59
s 6
f 18/50/55 4/4/54 31/6/60 34/53/61
s 2
f 11/17/16 8/12/12 16/15/14 19/18/17
s 5
f 5/8/34 12/54/33 20/55/49 1/2/48
s 6
f 9/38/38 6/7/37 2/1/53 15/49/52
s 1
f 24/46/62 23/33/63 28/37/64 27/43/65
s 2
f 26/56/66 10/32/30 11/17/16 12/57/15
s 9
f 30/58/67 7/9/68 10/32/69 25/59/70
s 2
f 34/60/71 13/20/72 17/29/28 18/61/27
s off
f 23/33/73 24/46/74 25/45/75 26/62/76
s 8
f 27/43/43 28/37/77 29/36/78 30/44/44
s 7
f 31/6/79 32/40/40 33/39/39 34/63/80
s off
f 35/41/81 36/5/82 37/64/83 38/42/84
f 25/59/85 10/32/86 26/65/87
s 9
f 29/66/88 7/9/68 30/58/67
s 4
f 33/67/20 13/20/19 34/60/89
s off
f 37/68/90 14/23/91 38/22/92
s 1
f 28/37/64 23/33/63 5/8/8 6/7/7
f 31/6/6 36/5/5 35/41/93 32/40/94
